<svg xmlns="http://www.w3.org/2000/svg" xmlns:xlink="http://www.w3.org/1999/xlink" version="1.1"  x="0px" y="0px" viewBox="0 0 384 384" style="enable-background:new 0 0 384 384;" xml:space="preserve">
<g>
	<path class="st0" d="M336,304h16v32h-16V304z"/>
	<path class="st0" d="M336,352h16v32h-16V352z"/>
	<path class="st0" d="M304,352v-16h32v16H304z"/>
	<path class="st0" d="M352,352v-16h32v16H352z"/>
</g>
<path class="st0" d="M265.3,352h-31.4c-4.5,0-8-3.5-8-8s3.5-8,8-8h31.4c4.5,0,8,3.5,8,8S269.8,352,265.3,352L265.3,352z M202.7,352  h-31.4c-4.5,0-8-3.5-8-8s3.5-8,8-8h31.4c4.5,0,8,3.5,8,8S207,352,202.7,352z M140,352h-31.4c-4.5,0-8-3.5-8-8s3.5-8,8-8H140  c4.5,0,8,3.5,8,8S144.3,352,140,352z M77.3,352H45.9c-4.5,0-8-3.5-8-8s3.7-8,8-8h31.4c4.5,0,8,3.5,8,8S81.8,352,77.3,352z   M15.2,349.3c-1.4,0-3-0.5-4.5-1.3C4,343.5,0,336,0,328v-15.5c0-4.5,3.5-8,8-8s8,3.5,8,8V328c0,2.7,1.3,5.1,3.5,6.7  c3.7,2.4,4.6,7.4,2.2,11C20.3,348.2,17.8,349.3,15.2,349.3z M8,289.1c-4.5,0-8-3.5-8-8v-31.4c0-4.5,3.5-8,8-8s8,3.5,8,8v31.4  C16,285.4,12.5,289.1,8,289.1z M344,266.7c-4.5,0-8-3.5-8-8v-31.4c0-4.5,3.5-8,8-8s8,3.5,8,8v31.4C352,263.2,348.5,266.7,344,266.7  L344,266.7z M8,226.4c-4.5,0-8-3.5-8-8V187c0-4.5,3.5-8,8-8s8,3.7,8,8v31.4C16,222.9,12.5,226.4,8,226.4z M344,204c-4.5,0-8-3.5-8-8  v-31.4c0-4.5,3.5-8,8-8s8,3.5,8,8V196C352,200.5,348.5,204,344,204z M8,163.7c-4.5,0-8-3.5-8-8v-31.4c0-4.5,3.5-8,8-8s8,3.7,8,8.2  v31.4C16,160.2,12.5,163.7,8,163.7z M344,141.3c-4.5,0-8-3.5-8-8v-31.4c0-4.5,3.5-8,8-8s8,3.5,8,8v31.4  C352,137.8,348.5,141.3,344,141.3z M8,101.1c-4.5,0-8-3.5-8-8V61.8c0-4.5,3.5-8,8-8s8,3.5,8,8v31.4C16,97.4,12.5,101.1,8,101.1z   M344,78.7c-4.5,0-8-3.5-8-8V39.4c0-4.5,3.5-8,8-8s8,3.5,8,8v31.4C352,75,348.5,78.7,344,78.7z M8,38.4c-4.5,0-8-3.5-8-8V24  C0,10.9,10.6,0.2,23.7,0c4.6-0.2,8,3.5,8.2,7.8c0,4.5-3.5,8.2-8,8.2c-4.3,0-7.8,3.7-7.8,8v6.4C16,34.9,12.5,38.4,8,38.4z   M336.6,18.6c-1.4,0-3-0.5-4.3-1.3S329.6,16,328,16h-22.2c-4.5,0-8-3.5-8-8s3.7-8,8-8H328c4.6,0,9.1,1.3,13,3.8  c3.7,2.4,4.8,7.4,2.4,11C341.9,17.3,339.4,18.6,336.6,18.6L336.6,18.6z M274.6,16h-31.4c-4.5,0-8-3.5-8-8s3.5-8,8-8h31.4  c4.5,0,8,3.5,8,8S278.9,16,274.6,16z M211.8,16h-31.4c-4.5,0-8-3.5-8-8s3.5-8,8-8h31.4c4.5,0,8,3.5,8,8S216.2,16,211.8,16z   M149.1,16h-31.4c-4.5,0-8-3.5-8-8s3.7-8,8-8h31.4c4.5,0,8,3.5,8,8S153.6,16,149.1,16z M86.4,16H55.2c-4.5,0-8-3.5-8-8s3.5-8,8-8  h31.2c4.5,0,8,3.5,8,8S90.9,16,86.4,16z"/>
</svg>