<svg xmlns="http://www.w3.org/2000/svg" xmlns:xlink="http://www.w3.org/1999/xlink" version="1.1"  x="0px" y="0px" viewBox="0 0 472.2 512" style="enable-background:new 0 0 472.2 512;" xml:space="preserve">
<path  class="st0" d="M468.4,264.7c-7.6-28.4-25.8-52.1-51.2-66.8c-11.8-6.8-24.4-11.2-37.1-13.3V74  c0-2.7-1.1-5.2-2.9-7.1l-64-64C311.2,1.1,308.7,0,306,0H10C4.5,0,0,4.5,0,10v492c0,5.5,4.5,10,10,10h311c0.4,0,0.9,0,1.3,0  c6.1,0,12.2-0.8,18.3-2.4c18.1-4.8,33.2-16.4,42.5-32.6l74.4-128.8C472.1,322.8,476,293.1,468.4,264.7L468.4,264.7z M316,34.1  L345.9,64H316V34.1z M20,20h276v54c0,5.5,4.5,10,10,10h54v99.2c-37.2,0.8-73.2,20.4-93.1,55l-4.5,7.8H82c-5.5,0-10,4.5-10,10  c0,5.5,4.5,10,10,10h168.8l-25.4,44H82c-5.5,0-10,4.5-10,10s4.5,10,10,10h131.9l-25.4,44H82c-5.5,0-10,4.5-10,10s4.5,10,10,10h94.9  l-0.1,0.1c-8.3,14.3-3.3,32.7,11,41c6.9,4,15,5.1,22.8,3c7.7-2.1,14.2-7,18.2-14l90-155.9c13.8-23.9,44.4-32.1,68.3-18.3  c23.9,13.8,32.1,44.4,18.3,68.3L331.1,447c-1.3,2.3-3.5,4-6.1,4.7c-2.6,0.7-5.3,0.3-7.6-1c-2.3-1.3-4-3.5-4.7-6.1s-0.3-5.3,1-7.6  l70.7-122.5c8.3-14.3,3.3-32.7-11-41c-14.3-8.3-32.7-3.3-41,11L261.8,407c-16.3,28.2-10.6,63.2,11.6,85H20V20z M440.1,338.2  L365.7,467c-6.7,11.5-17.4,19.8-30.4,23.3c-12.9,3.5-26.4,1.7-37.9-5c-23.9-13.8-32.1-44.4-18.3-68.3l70.7-122.5  c1.9-3.2,5.2-5,8.7-5c1.7,0,3.4,0.4,5,1.3c4.8,2.8,6.4,8.9,3.7,13.7L296.4,427c-4,6.9-5.1,15-3,22.8c2.1,7.7,7,14.2,14,18.2  c6.9,4,15,5.1,22.8,3c7.7-2.1,14.2-7,18.2-14l74.4-128.8c19.3-33.4,7.8-76.3-25.6-95.6c-33.4-19.3-76.3-7.8-95.6,25.6l-90,155.9  c-1.3,2.3-3.5,4-6.1,4.7c-2.6,0.7-5.3,0.3-7.6-1c-4.8-2.8-6.4-8.9-3.7-13.7l90-155.9c24.8-43,80-57.8,122.9-32.9  C450.1,240,464.9,295.2,440.1,338.2L440.1,338.2z"/>
<path  class="st0" d="M127,138h171c5.5,0,10-4.5,10-10s-4.5-10-10-10H127c-5.5,0-10,4.5-10,10  C117,133.5,121.5,138,127,138L127,138z"/>
<path  class="st0" d="M82,138c2.6,0,5.2-1.1,7.1-2.9c1.9-1.9,2.9-4.4,2.9-7.1c0-2.6-1.1-5.2-2.9-7.1  c-1.9-1.9-4.4-2.9-7.1-2.9c-2.6,0-5.2,1.1-7.1,2.9c-1.9,1.9-2.9,4.4-2.9,7.1c0,2.6,1.1,5.2,2.9,7.1C76.8,136.9,79.4,138,82,138z"/>
<path  class="st0" d="M82,202h183.3c5.5,0,10-4.5,10-10s-4.5-10-10-10H82c-5.5,0-10,4.5-10,10S76.5,202,82,202z"/>
</svg>