<svg xmlns="http://www.w3.org/2000/svg"  enable-background="new 0 0 100 100" viewBox="0 0 100 100" >
<g>
<path d="m24.089 23.215c2.23 0 4.045-1.814 4.045-4.043 0-2.23-1.814-4.044-4.045-4.044-2.229 0-4.043 1.814-4.043 4.044 0 2.229 1.814 4.043 4.043 4.043zm0-5.587c.852 0 1.545.692 1.545 1.544 0 .851-.693 1.543-1.545 1.543-.851 0-1.543-.692-1.543-1.543 0-.852.693-1.544 1.543-1.544z"/>
<path d="m63.382 23.215c2.229 0 4.043-1.814 4.043-4.043 0-2.23-1.813-4.044-4.043-4.044s-4.044 1.814-4.044 4.044c0 2.229 1.814 4.043 4.044 4.043zm0-5.587c.851 0 1.543.692 1.543 1.544 0 .851-.692 1.543-1.543 1.543-.852 0-1.544-.692-1.544-1.543 0-.852.693-1.544 1.544-1.544z"/>
<path d="m43.738 23.215c2.229 0 4.043-1.814 4.043-4.043 0-2.23-1.813-4.044-4.043-4.044s-4.043 1.814-4.043 4.044c0 2.229 1.813 4.043 4.043 4.043zm0-5.587c.851 0 1.543.692 1.543 1.544 0 .851-.692 1.543-1.543 1.543s-1.543-.692-1.543-1.543c0-.852.692-1.544 1.543-1.544z"/>
<path d="m29.366 35.407h-10.552c-.69 0-1.25.56-1.25 1.25v10.553c0 .69.56 1.25 1.25 1.25h10.552c.69 0 1.25-.56 1.25-1.25v-10.553c0-.691-.56-1.25-1.25-1.25zm-1.25 10.552h-8.052v-8.053h8.052z"/>
<path d="m29.366 56.513h-10.552c-.69 0-1.25.56-1.25 1.25v10.552c0 .69.56 1.25 1.25 1.25h10.552c.69 0 1.25-.56 1.25-1.25v-10.552c0-.691-.56-1.25-1.25-1.25zm-1.25 10.552h-8.052v-8.052h8.052z"/>
<path d="m38.461 48.459h10.553c.69 0 1.25-.56 1.25-1.25v-10.552c0-.69-.56-1.25-1.25-1.25h-10.553c-.69 0-1.25.56-1.25 1.25v10.553c0 .69.56 1.249 1.25 1.249zm1.25-10.552h8.053v8.053h-8.053z"/>
<path d="m47.661 59.013c.69 0 1.25-.56 1.25-1.25s-.56-1.25-1.25-1.25h-9.199c-.69 0-1.25.56-1.25 1.25v10.552c0 .69.56 1.25 1.25 1.25h7.241c.69 0 1.25-.56 1.25-1.25s-.56-1.25-1.25-1.25h-5.991v-8.052z"/>
<path d="m58.11 46.762c.69 0 1.25-.56 1.25-1.25v-7.605h8.051v4.388c0 .69.56 1.25 1.25 1.25s1.25-.56 1.25-1.25v-5.638c0-.69-.56-1.25-1.25-1.25h-10.551c-.69 0-1.25.56-1.25 1.25v8.855c0 .69.559 1.25 1.25 1.25z"/>
<path d="m79.963 47.17v-31.671c0-2.743-2.231-4.975-4.975-4.975h-62.5c-2.744 0-4.976 2.231-4.976 4.975v58.869c0 2.743 2.232 4.975 4.976 4.975h38.669c.123 0 .233-.037.345-.07 3.973 6.133 10.872 10.203 18.708 10.203 12.285 0 22.279-9.995 22.279-22.279 0-8.789-5.116-16.403-12.526-20.027zm-67.475-34.146h62.501c1.365 0 2.475 1.11 2.475 2.475v9.499h-67.452v-9.499c0-1.364 1.111-2.475 2.476-2.475zm0 63.819c-1.365 0-2.476-1.11-2.476-2.475v-46.87h67.451v18.638c-2.276-.786-4.714-1.219-7.254-1.219-12.285 0-22.279 9.995-22.279 22.279 0 3.454.79 6.726 2.199 9.646h-37.641zm57.721 10.133c-10.906 0-19.779-8.873-19.779-19.779s8.873-19.779 19.779-19.779 19.779 8.873 19.779 19.779-8.872 19.779-19.779 19.779z"/>
<path d="m83.948 65.946h-12.489v-12.489c0-.69-.56-1.25-1.25-1.25s-1.25.56-1.25 1.25v12.489h-12.488c-.69 0-1.25.56-1.25 1.25s.56 1.25 1.25 1.25h12.489v12.489c0 .69.56 1.25 1.25 1.25s1.25-.56 1.25-1.25v-12.489h12.489c.69 0 1.25-.56 1.25-1.25s-.56-1.25-1.251-1.25z"/>
</g>
</svg>