<svg xmlns="http://www.w3.org/2000/svg" xmlns:xlink="http://www.w3.org/1999/xlink" version="1.1"  x="0px" y="0px" viewBox="0 0 305 387" style="enable-background:new 0 0 305 387;" xml:space="preserve">
<path class="st0" d="M289,50h-72v-8c0-22.1-17.9-40-40-40h-48c-22.1,0-40,17.9-40,40v8H17C8.2,50,1,57.2,1,66v24c0,8.8,7.2,16,16,16  h272c8.8,0,16-7.2,16-16V66C305,57.2,297.8,50,289,50z M121,42c0-4.4,3.6-8,8-8h48c4.4,0,8,3.6,8,8v8h-64V42z"/>
<path class="st0" d="M283.2,127.2c-3-3.3-7.3-5.2-11.8-5.2H34.6c-4.5,0-8.8,1.9-11.8,5.2c-3,3.3-4.5,7.8-4.1,12.3L38.3,345  c2.2,23.4,22.8,41,47.8,41h133.7c25,0,45.6-17.6,47.8-41l19.7-205.5C287.8,135,286.3,130.6,283.2,127.2L283.2,127.2z M115.6,346  c-0.3,0-0.7,0-1,0c-8.4,0-15.4-6.5-16-15L89,179c-0.6-8.8,6.1-16.4,15-17c8.8-0.5,16.4,6.1,17,15l9.6,152  C131.1,337.8,124.4,345.4,115.6,346L115.6,346z M207.4,331c-0.5,8.5-7.6,15-16,15c-0.3,0-0.7,0-1,0c-8.8-0.6-15.5-8.2-15-17l9.6-152  c0.6-8.8,8.1-15.5,17-15c8.8,0.6,15.5,8.2,15,17L207.4,331z"/>
</svg>