<svg xmlns="http://www.w3.org/2000/svg" xmlns:xlink="http://www.w3.org/1999/xlink" version="1.1"  x="0px" y="0px" viewBox="0 0 392 512" style="enable-background:new 0 0 392 512;" xml:space="preserve">
<g>
	<path d="M386.6,124.4l-120-120C263.8,1.6,260,0,256,0H46C21.2,0,1,20.2,1,45v422c0,24.8,20.2,45,45,45h300c24.8,0,45-20.2,45-45   V135C391,130.9,389.3,127.1,386.6,124.4z M271,51.2l68.8,68.8H286c-8.3,0-15-6.7-15-15V51.2z M346,482H46c-8.3,0-15-6.7-15-15V45   c0-8.3,6.7-15,15-15h195v75c0,24.8,20.2,45,45,45h75v317C361,475.3,354.3,482,346,482z"/>
	<path d="M286,212H106c-8.3,0-15,6.7-15,15s6.7,15,15,15h180c8.3,0,15-6.7,15-15S294.3,212,286,212z"/>
	<path d="M286,272H106c-8.3,0-15,6.7-15,15s6.7,15,15,15h180c8.3,0,15-6.7,15-15S294.3,272,286,272z"/>
	<path d="M286,332H106c-8.3,0-15,6.7-15,15s6.7,15,15,15h180c8.3,0,15-6.7,15-15S294.3,332,286,332z"/>
	<path d="M226,392H106c-8.3,0-15,6.7-15,15s6.7,15,15,15h120c8.3,0,15-6.7,15-15S234.3,392,226,392z"/>
</g>
</svg>