<svg xmlns="http://www.w3.org/2000/svg" xmlns:xlink="http://www.w3.org/1999/xlink" version="1.1"  x="0px" y="0px" viewBox="0 0 512 512" style="enable-background:new 0 0 512 512;" xml:space="preserve">
<path class="st0" d="M405.3,257c-11.8,0-21.3,9.6-21.3,21.3V449c0,11.8-9.6,21.3-21.3,21.3H64c-11.8,0-21.3-9.6-21.3-21.3V150.3  c0-11.8,9.6-21.3,21.3-21.3h170.7c11.8,0,21.3-9.6,21.3-21.3c0-11.8-9.5-21.3-21.3-21.3H64c-35.3,0-64,28.7-64,64V449  c0,35.3,28.7,64,64,64h298.7c35.3,0,64-28.7,64-64V278.3C426.7,266.5,417.1,257,405.3,257z"/>
<path class="st0" d="M200,237.6c-1.5,1.5-2.5,3.4-2.9,5.4L182,318.4c-0.7,3.5,0.4,7.1,2.9,9.6c2,2,4.8,3.1,7.6,3.1  c0.7,0,1.4-0.1,2.1-0.2l75.4-15.1c2.1-0.4,4-1.4,5.5-2.9l168.8-168.8l-75.4-75.4L200,237.6z"/>
<path class="st0" d="M496.4,16.6c-20.8-20.8-54.6-20.8-75.4,0l-29.5,29.5l75.4,75.4L496.4,92C506.5,82,512,68.6,512,54.3  S506.5,26.7,496.4,16.6z"/>
</svg>