<?xml version="1.0" encoding="utf-8"?>
<!-- Generator: Adobe Illustrator 27.8.1, SVG Export Plug-In . SVG Version: 6.00 Build 0)  -->
<svg version="1.1" id="bold" xmlns="http://www.w3.org/2000/svg" xmlns:xlink="http://www.w3.org/1999/xlink" x="0px" y="0px"
	 viewBox="0 0 469.3 469.3" style="enable-background:new 0 0 469.3 469.3;" xml:space="preserve">
<g>
	<path class="st0" d="M362.7,469.3H64c-35.3,0-64-28.7-64-64V106.7c0-35.3,28.7-64,64-64h170.7c11.8,0,21.3,9.5,21.3,21.3
		s-9.6,21.3-21.3,21.3H64c-11.8,0-21.3,9.6-21.3,21.3v298.7c0,11.8,9.6,21.3,21.3,21.3h298.7c11.8,0,21.3-9.6,21.3-21.3V234.7
		c0-11.8,9.6-21.3,21.3-21.3s21.3,9.5,21.3,21.3v170.7C426.7,440.6,398,469.3,362.7,469.3z"/>
</g>
<path class="st0" d="M448,0H320c-8.6,0-16.4,5.2-19.7,13.2c-3.3,8-1.5,17.2,4.6,23.3l48.9,48.9L198.3,240.9
	c-8.3,8.3-8.3,21.8,0,30.2c4.2,4.2,9.6,6.3,15.1,6.3c5.5,0,10.9-2.1,15.1-6.3L384,115.5l48.9,48.9c4.1,4.1,9.5,6.3,15.1,6.3
	c2.8,0,5.5-0.5,8.2-1.6c8-3.3,13.2-11.1,13.2-19.7v-128C469.3,9.5,459.8,0,448,0L448,0z"/>
</svg>
