<svg xmlns="http://www.w3.org/2000/svg" xmlns:xlink="http://www.w3.org/1999/xlink" version="1.1" id="Capa_1" x="0px" y="0px" viewBox="0 0 480 480" style="enable-background:new 0 0 480 480;" xml:space="preserve">
<style type="text/css">
	.st0{fill:#FFFFFF;}
</style>
<g>
	<g>
		<path class="st0" d="M160,344h-16c-4.4,0-8,3.6-8,8s3.6,8,8,8h16c4.4,0,8-3.6,8-8S164.4,344,160,344z"/>
	</g>
</g>
<g>
	<g>
		<path class="st0" d="M384,344H192c-4.4,0-8,3.6-8,8s3.6,8,8,8h192c4.4,0,8-3.6,8-8S388.4,344,384,344z"/>
	</g>
</g>
<g>
	<g>
		<path class="st0" d="M160,296h-16c-4.4,0-8,3.6-8,8s3.6,8,8,8h16c4.4,0,8-3.6,8-8S164.4,296,160,296z"/>
	</g>
</g>
<g>
	<g>
		<path class="st0" d="M384,296H192c-4.4,0-8,3.6-8,8s3.6,8,8,8h192c4.4,0,8-3.6,8-8S388.4,296,384,296z"/>
	</g>
</g>
<g>
	<g>
		<path class="st0" d="M160,248h-16c-4.4,0-8,3.6-8,8c0,4.4,3.6,8,8,8h16c4.4,0,8-3.6,8-8C168,251.6,164.4,248,160,248z"/>
	</g>
</g>
<g>
	<g>
		<path class="st0" d="M384,248H192c-4.4,0-8,3.6-8,8c0,4.4,3.6,8,8,8h192c4.4,0,8-3.6,8-8C392,251.6,388.4,248,384,248z"/>
	</g>
</g>
<g>
	<g>
		<path class="st0" d="M160,200h-16c-4.4,0-8,3.6-8,8s3.6,8,8,8h16c4.4,0,8-3.6,8-8S164.4,200,160,200z"/>
	</g>
</g>
<g>
	<g>
		<path class="st0" d="M384,200H192c-4.4,0-8,3.6-8,8s3.6,8,8,8h192c4.4,0,8-3.6,8-8S388.4,200,384,200z"/>
	</g>
</g>
<g>
	<g>
		<path class="st0" d="M160,152h-16c-4.4,0-8,3.6-8,8s3.6,8,8,8h16c4.4,0,8-3.6,8-8S164.4,152,160,152z"/>
	</g>
</g>
<g>
	<g>
		<path class="st0" d="M384,152H192c-4.4,0-8,3.6-8,8s3.6,8,8,8h192c4.4,0,8-3.6,8-8S388.4,152,384,152z"/>
	</g>
</g>
<g>
	<g>
		<path class="st0" d="M439.9,119.5c0-0.7-0.2-1.4-0.4-2.1c-0.1-0.3-0.2-0.5-0.3-0.8c-0.4-0.9-0.9-1.7-1.6-2.3l-112-112    c-0.7-0.7-1.5-1.2-2.3-1.6c-0.2-0.1-0.5-0.2-0.7-0.3c-0.7-0.2-1.4-0.4-2.1-0.4c-0.1,0-0.3-0.1-0.5-0.1H96c-4.4,0-8,3.6-8,8v24H48    c-4.4,0-8,3.6-8,8v432c0,4.4,3.6,8,8,8h336c4.4,0,8-3.6,8-8v-40h40c4.4,0,8-3.6,8-8V120C440,119.8,439.9,119.7,439.9,119.5z     M328,27.3l84.7,84.7H328V27.3z M376,464H56V48h32v376c0,4.4,3.6,8,8,8h280V464z M424,416H104V16h208v104c0,4.4,3.6,8,8,8h104V416    z"/>
	</g>
</g>
<g>
	<g>
		<path class="st0" d="M192,72h-48c-4.4,0-8,3.6-8,8v48c0,4.4,3.6,8,8,8h48c4.4,0,8-3.6,8-8V80C200,75.6,196.4,72,192,72z M184,120    h-32V88h32V120z"/>
	</g>
</g>
</svg>