<svg xmlns="http://www.w3.org/2000/svg" xmlns:xlink="http://www.w3.org/1999/xlink" version="1.1" id="Layer_1" x="0px" y="0px" viewBox="0 0 405 426.7" style="enable-background:new 0 0 405 426.7;" xml:space="preserve">

<g id="Rotate">
	<path  d="M383.7,0c-11.8,0-21.3,9.6-21.3,21.3v40.1C278.3-21,143.4-19.7,61,64.3s-81.1,218.9,2.9,301.4   s218.9,81.1,301.4-2.9c2.3-2.4,4.6-4.8,6.8-7.2c7.8-8.9,6.9-22.3-1.9-30.1c-8.7-7.7-22-6.9-29.8,1.6   c-62.7,70.6-170.7,76.9-241.3,14.2S22,170.6,84.7,100.1S255.4,23.1,326,85.8c7.2,6.4,13.8,13.4,19.8,20.8H277   c-11.8,0-21.3,9.6-21.3,21.3c0,11.8,9.6,21.3,21.3,21.3h106.7c11.8,0,21.3-9.6,21.3-21.3V21.3C405,9.6,395.4,0,383.7,0z"/>
</g>
</svg>