<?xml version="1.0" encoding="utf-8"?>
<!-- Generator: Adobe Illustrator 27.8.1, SVG Export Plug-In . SVG Version: 6.00 Build 0)  -->
<svg version="1.1" id="Layer_1" xmlns="http://www.w3.org/2000/svg" xmlns:xlink="http://www.w3.org/1999/xlink" x="0px" y="0px"
	 viewBox="0 0 512 512" style="enable-background:new 0 0 512 512;" xml:space="preserve">
<style type="text/css">
	.st0{fill:#505A5F;}
</style>
<path class="st0" d="M255.7,512c-44.1,0-80-35.9-80-80c0-8.8,7.2-16,16-16s16,7.2,16,16c0,26.5,21.5-28.7,48-28.7s48,55.2,48,28.7
	c0-8.8,7.2-16,16-16s16,7.2,16,16C335.7,476.1,299.8,512,255.7,512z"/>
<path class="st0" d="M431.7,448h-352c-20.6,0-37.3-16.7-37.3-37.3c0-10.9,4.8-21.3,13.1-28.4c32.4-27.4,50.9-67.3,50.9-109.5v-59.5
	c0-82.3,67-149.3,149.3-149.3C338,64,405,131,405,213.3v59.5c0,42.2,18.5,82.1,50.7,109.3c8.5,7.3,13.3,17.6,13.3,28.5
	C469,431.3,452.3,448,431.7,448z"/>
<path class="st0" d="M255.7,96c-8.8,0-16-7.2-16-16V16c0-8.8,7.2-16,16-16s16,7.2,16,16v64C271.7,88.8,264.5,96,255.7,96z"/>
</svg>
